PathFileType	4	(X/Y/Z)	Kaydara																																																																																																																																																																																																																												
DataRate	CameraRate	NumFrames	NumMarkers	Units	OrigDataRate	OrigDataStartFrame	OrigNumFrames																																																																																																																																																																																																																								
60	60	4	74	mm	60	1331	294																																																																																																																																																																																																																								
Frame#	Time	N_lasi			N_rasi			N_rpsi			N_lpsi			N_fneck			N_bneck			N_fhead			N_rhead			N_lhead			N_rshld			N_relbtop			N_relbext			N_relblow			N_rwrext			N_rwrtop			N_rwrlow			N_lshld			N_lelblow			N_lelbtop			N_lwrext			N_lwrtop			N_lwrlow			N_rtopleg			N_ltopleg			N_rkneefr			N_rkneebk			N_rkneeis			N_lkneefr			N_lknssbk			N_lkneeis			N_rankfr			N_rankis			N_rankbk			N_lankfr			N_lankbk			N_lankis			D_lasi			D_rasi			D_lpsi			D_fneck			D_bneck			D_fhead			D_rhead			D_lhead			D_rshld			D_relbtop			D_relbext			D_relblow			D_rwrext			D_rwrtop			D_rwrlow			D_lshld			D_lelbext			D_lelblow			D_lelbtop			D_lwrext			D_lwrtop			D_lwrlow			D_rtopleg			D_ltopleg			D_rkneefr			D_rkneebk			D_rkneeis			D_lkneefr			D_lknssbk			D_lkneeis			D_rankfr			D_rankis			D_rankbk			D_lankfr			D_lankbk			D_lankis			D_rpsi			N_lelbext		
		X1	Y1	Z1	X2	Y2	Z2	X3	Y3	Z3	X4	Y4	Z4	X5	Y5	Z5	X6	Y6	Z6	X7	Y7	Z7	X8	Y8	Z8	X9	Y9	Z9	X10	Y10	Z10	X11	Y11	Z11	X12	Y12	Z12	X13	Y13	Z13	X14	Y14	Z14	X15	Y15	Z15	X16	Y16	Z16	X17	Y17	Z17	X18	Y18	Z18	X19	Y19	Z19	X20	Y20	Z20	X21	Y21	Z21	X22	Y22	Z22	X23	Y23	Z23	X24	Y24	Z24	X25	Y25	Z25	X26	Y26	Z26	X27	Y27	Z27	X28	Y28	Z28	X29	Y29	Z29	X30	Y30	Z30	X31	Y31	Z31	X32	Y32	Z32	X33	Y33	Z33	X34	Y34	Z34	X35	Y35	Z35	X36	Y36	Z36	X37	Y37	Z37	X38	Y38	Z38	X39	Y39	Z39	X40	Y40	Z40	X41	Y41	Z41	X42	Y42	Z42	X43	Y43	Z43	X44	Y44	Z44	X45	Y45	Z45	X46	Y46	Z46	X47	Y47	Z47	X48	Y48	Z48	X49	Y49	Z49	X50	Y50	Z50	X51	Y51	Z51	X52	Y52	Z52	X53	Y53	Z53	X54	Y54	Z54	X55	Y55	Z55	X56	Y56	Z56	X57	Y57	Z57	X58	Y58	Z58	X59	Y59	Z59	X60	Y60	Z60	X61	Y61	Z61	X62	Y62	Z62	X63	Y63	Z63	X64	Y64	Z64	X65	Y65	Z65	X66	Y66	Z66	X67	Y67	Z67	X68	Y68	Z68	X69	Y69	Z69	X70	Y70	Z70	X71	Y71	Z71	X72	Y72	Z72	X73	Y73	Z73	X74	Y74	Z74
																																																																																																																																																																																																																															
74	22.167	-535.79643	1240.3231	-70.34425	-518.09151	1250.07385	-301.52363	-248.47631	1227.35695	-345.89779	-272.8857	1220.50049	4.06582	-392.803	1609.21356	-160.4952	-250.18341	1665.53223	-172.66918	-437.54383	1811.69632	-176.26654	-250.28074	1763.22296	-237.83726	-295.79021	1775.90164	-88.41625	-278.75967	1635.6456	-383.82698	-221.69508	1508.88947	-630.80315	-304.19424	1460.54016	-631.94214	-291.41979	1567.39838	-641.66496	-220.15213	1468.07022	-955.35202	-265.48742	1477.64954	-966.77849	-293.69717	1443.51227	-949.29489	-262.79278	1619.43954	11.0933	-293.55389	1623.51242	284.0889	-258.04249	1544.14398	295.84637	-269.41502	1604.08234	608.15601	-308.51944	1628.8504	616.2077	-338.19515	1584.245	611.5752	-419.06517	1047.60597	-432.03701	-372.14764	1014.65019	50.82594	-431.36879	562.17773	-256.41994	-325.44865	579.56898	-324.48463	-369.03084	564.53888	-163.40017	-381.29597	539.21516	-97.72036	-255.21002	555.59418	-38.30373	-257.05082	547.59857	-187.9871	-296.89249	140.04744	-270.53162	-298.70642	154.26567	-190.50373	-216.91599	142.08097	-215.75022	-332.27985	192.84504	-118.01543	-258.9448	185.29959	-75.10676	-294.9448	164.29959	-159.10676	-461.58073	1038.27599	1742.17392	-428.03398	1055.56496	1454.25049	-262.27701	1132.46506	1743.71307	-406.84315	1566.24054	1581.60614	-265.00448	1591.34064	1588.04123	-437.24373	1778.48053	1583.49289	-276.91639	1730.13519	1505.80917	-284.94705	1728.10959	1661.16821	-319.64167	1565.9935	1429.19022	-409.60365	1490.92255	1142.94998	-447.00611	1524.17648	1198.86719	-349.73713	1538.45947	1186.50208	-450.09369	1776.39404	1187.15347	-392.25365	1779.67514	1176.2587	-384.13612	1758.42758	1225.87646	-315.84839	1571.28784	1776.30264	-409.24324	1504.42825	2039.98932	-322.91489	1567.51633	2025.03815	-329.81033	1489.96399	2045.32211	-350.50259	1575.26169	2287.73773	-383.62816	1602.08313	2277.80838	-422.35374	1569.8143	2270.35522	-333.89656	1004.9115	1408.09952	-319.79183	1010.17632	1808.0954	-373.70243	455.37605	1450.80414	-274.28776	491.16264	1422.49649	-280.90277	458.76915	1543.33313	-358.52055	448.58101	1770.64789	-245.89609	486.06018	1786.48132	-317.52975	444.04976	1679.07379	-324.00948	130.46171	1417.93594	-294.83883	126.67837	1482.54974	-243.68488	127.88301	1417.98676	-323.46062	134.99219	1792.04163	-250.83698	124.89323	1806.22131	-294.05313	124.06799	1732.70401	-237.24852	1147.86438	1525.21454	-348.60588	1536.30157	295.29724
75	22.183	-535.5254	1240.17815	-70.08304	-518.09914	1249.78554	-301.36751	-248.39451	1227.38144	-345.7098	-272.79066	1220.64339	4.28665	-393.11794	1609.48685	-160.80538	-250.49829	1665.80551	-172.97935	-437.47604	1812.08923	-176.49759	-250.57552	1763.0687	-238.3024	-295.83363	1776.04614	-88.64752	-280.47869	1633.25302	-388.12965	-221.23451	1496.47491	-629.39445	-305.33485	1446.97891	-631.62079	-291.95826	1553.45154	-643.34045	-218.32575	1441.01715	-951.03859	-263.81241	1449.41269	-963.04665	-291.1833	1415.43503	-944.049	-263.38207	1619.59656	10.87803	-293.60582	1624.6875	283.95561	-258.13192	1545.30762	295.71392	-269.36274	1606.09192	607.95544	-308.40084	1631.0141	615.91167	-338.16772	1586.33591	611.49227	-418.885	1047.43835	-431.99127	-372.02202	1014.72359	51.06741	-431.26221	562.19845	-256.31411	-325.34222	579.62425	-324.38297	-368.77796	564.50283	-163.34103	-381.23386	539.22165	-97.58616	-255.06615	555.6081	-38.24216	-257.00022	547.60117	-187.92744	-296.88408	140.07949	-270.5373	-298.71031	154.29336	-190.50491	-216.93541	142.08924	-215.7091	-332.25849	192.85545	-117.95596	-258.89938	185.31717	-75.13199	-294.89938	164.31717	-159.13199	-461.42738	1038.32558	1742.12982	-427.8611	1055.60692	1454.21707	-262.14706	1132.43408	1743.6969	-406.57738	1566.19675	1581.5509	-264.77375	1591.40488	1588.00461	-437.15118	1778.41446	1583.43063	-276.78316	1730.12863	1505.83527	-284.91543	1728.1192	1661.16333	-319.54367	1566.03195	1429.38248	-408.92334	1490.74936	1142.90894	-446.45809	1523.84811	1198.71933	-349.27059	1538.26202	1186.60027	-449.70539	1776.08337	1187.80624	-391.94469	1779.4957	1176.6597	-383.68454	1758.09601	1226.24039	-315.65264	1571.2291	1776.32492	-409.16382	1504.35776	2039.96536	-322.78996	1567.45926	2024.97345	-329.67892	1489.91913	2045.35156	-350.70606	1575.42419	2287.75818	-383.79673	1602.2197	2277.66708	-422.51999	1570.00336	2270.15549	-333.70831	1004.88632	1408.04153	-319.63486	1010.21103	1808.0751	-373.6578	455.40306	1450.75256	-274.18091	491.14952	1422.4408	-280.82005	458.79673	1543.37769	-358.54092	448.59337	1770.63553	-245.8913	486.02493	1786.49597	-317.58017	444.03843	1679.08417	-323.99826	130.45871	1417.9097	-294.85847	126.65906	1482.41852	-243.66589	127.88021	1417.95364	-323.48808	134.91905	1791.99722	-250.81539	124.8874	1806.16379	-294.05846	124.06323	1732.71286	-237.16492	1147.81944	1525.35721	-348.87188	1537.45621	295.32364
76	22.2	-535.24841	1240.00175	-69.8089	-518.23513	1249.57962	-301.21431	-248.47576	1227.40044	-345.43957	-272.61169	1220.82283	4.41737	-394.26025	1609.21021	-160.99167	-251.64066	1665.52902	-173.16566	-437.43599	1812.39044	-176.71692	-250.63799	1762.92557	-238.41782	-295.85981	1776.1676	-88.88921	-282.65232	1630.12558	-393.14125	-220.72432	1483.47061	-627.42355	-305.03092	1433.10608	-630.96821	-292.26679	1538.79425	-644.08066	-216.36721	1412.52594	-945.32684	-261.93069	1419.64508	-957.74284	-288.9049	1386.19034	-937.24075	-263.73308	1620.18234	10.42352	-293.96671	1625.66467	283.34982	-258.20169	1546.50909	295.47804	-269.45885	1608.14011	607.25956	-308.45795	1633.07739	615.45265	-338.11199	1588.37479	611.10443	-418.79467	1047.40715	-432.02629	-371.80698	1014.78775	51.34034	-431.13243	562.20516	-256.1367	-325.2153	579.65366	-324.24648	-368.7048	564.55742	-163.16828	-381.18679	539.27284	-97.44099	-254.97026	555.58949	-38.12539	-256.97321	547.61589	-187.77567	-296.84895	140.11345	-270.52832	-298.69005	154.30027	-190.49267	-216.89587	142.11536	-215.69811	-332.28134	192.87294	-117.92851	-258.96341	185.34664	-75.17613	-294.96341	164.34664	-159.17613	-461.1969	1038.32016	1742.06757	-427.64488	1055.65315	1454.1478	-261.98763	1132.41615	1743.69507	-406.36177	1566.20865	1581.50711	-264.60751	1591.42319	1588.01605	-437.06203	1778.33847	1583.42941	-276.7256	1730.06454	1505.81497	-284.86118	1728.12195	1661.24908	-319.12045	1565.96054	1429.25003	-408.27404	1490.55023	1142.63588	-445.92926	1523.5466	1198.59619	-348.79799	1538.05038	1186.7186	-449.32343	1775.73074	1188.0719	-391.55609	1779.23767	1177.41714	-383.59188	1757.73773	1226.83716	-315.44392	1571.15707	1776.27823	-409.22806	1504.41666	2039.86389	-322.67628	1567.39105	2024.91699	-329.71214	1489.89822	2045.38666	-350.90988	1575.39063	2287.74918	-383.85807	1602.24014	2277.60559	-422.71217	1570.18417	2269.99451	-333.43483	1004.87938	1407.96814	-319.46978	1010.2066	1808.09219	-373.59142	455.42721	1450.67352	-274.1078	491.12488	1422.38892	-280.85344	458.71513	1543.32169	-358.53851	448.58814	1770.64026	-245.87849	485.99335	1786.48544	-317.58978	444.04297	1679.07104	-323.96381	130.45768	1417.89871	-294.82813	126.66357	1482.45316	-243.63071	127.85844	1417.98431	-323.47775	134.91632	1791.99844	-250.7972	124.89831	1806.15005	-294.02308	124.04136	1732.67242	-236.99015	1147.75009	1525.38803	-349.02195	1538.55103	295.18064
77	22.217	-534.89269	1239.84741	-69.52764	-518.44994	1249.53835	-301.00082	-248.68734	1227.38686	-345.07565	-272.40362	1220.99693	4.39941	-393.70461	1609.63821	-161.02757	-251.08501	1665.95688	-173.20156	-437.46071	1812.68127	-176.90285	-250.76073	1762.80197	-238.6092	-295.92655	1776.24405	-89.10079	-284.81884	1626.70975	-398.22498	-220.55651	1470.07141	-624.6981	-305.21799	1418.62473	-629.59473	-293.12485	1523.33817	-644.16237	-214.31786	1382.61841	-938.27789	-260.04536	1388.50388	-951.0601	-286.63013	1355.77759	-928.99582	-263.951	1620.89401	9.90279	-294.16981	1626.84784	282.8002	-258.38558	1547.71759	295.0271	-269.5866	1610.13504	606.58112	-308.51349	1635.18402	614.71233	-338.23372	1590.43915	610.5938	-418.75732	1047.4575	-431.98986	-371.51226	1014.81216	51.63167	-431.03813	562.20226	-255.86969	-325.14748	579.64966	-324.04514	-368.63632	564.5705	-162.99829	-381.09863	539.2989	-97.28188	-254.89523	555.54169	-37.94434	-256.84811	547.63702	-187.62028	-296.8494	140.14795	-270.48843	-298.63382	154.3073	-190.42204	-216.89016	142.10649	-215.61152	-332.29698	192.88906	-117.84659	-259.10244	185.38086	-75.20793	-295.10244	164.38086	-159.20793	-461.04103	1038.38791	1741.922	-427.40322	1055.72533	1454.08005	-261.85261	1132.4147	1743.72223	-406.23283	1566.2056	1581.54999	-264.52478	1591.44257	1588.07251	-437.03144	1778.2399	1583.40576	-276.61367	1730.10117	1505.8609	-284.83685	1728.18817	1661.27274	-318.8512	1565.9201	1429.26605	-407.63996	1490.32593	1142.44583	-445.31166	1523.14224	1198.44788	-348.24677	1537.79785	1186.74278	-448.8755	1775.32562	1188.5463	-391.14517	1778.98209	1178.09525	-383.44933	1757.31339	1227.47963	-315.26068	1571.1496	1776.23505	-409.29115	1504.52682	2039.75815	-322.59308	1567.34344	2024.97391	-329.77577	1489.85123	2045.40955	-351.07674	1575.24643	2287.76978	-383.93215	1602.23831	2277.5679	-422.89131	1570.25467	2269.88281	-333.18371	1004.85794	1407.93121	-319.28289	1010.24704	1808.1636	-373.51509	455.47375	1450.59128	-274.01733	491.10107	1422.3291	-280.83227	458.71178	1543.24738	-358.52062	448.58135	1770.64758	-245.86281	485.93983	1786.4476	-317.54581	443.9986	1679.10385	-323.9489	130.44619	1417.89337	-294.77346	126.6761	1482.55463	-243.61847	127.85067	1417.96158	-323.47977	134.92152	1792.00638	-250.73889	124.91064	1806.18256	-293.98514	124.02743	1732.68555	-236.89276	1147.67601	1525.50858	-349.27666	1539.75189	294.75693
